<svg width="148" height="77" viewBox="0 0 148 77" fill="none" xmlns="http://www.w3.org/2000/svg">
<path d="M29.6205 28.672C29.1613 28.6413 28.7479 28.626 28.3806 28.626C27.4621 28.626 26.8345 28.9475 26.4977 29.5904C26.1609 30.2027 25.9926 31.458 25.9926 33.3561V36.1115C25.9926 39.5711 26.0691 42.1122 26.2222 43.7348C25.9772 43.6735 25.7629 43.6429 25.5792 43.6429C25.3649 43.6429 25.12 43.6735 24.8445 43.7348C24.1097 41.5305 23.2218 40.4283 22.1809 40.4283C21.9054 40.4283 21.6298 40.5814 21.3543 40.8875C21.0788 41.1937 20.8032 41.4845 20.5277 41.7601C18.9663 43.1072 17.1447 43.7807 15.0628 43.7807C10.746 43.7807 7.39364 41.8825 5.00563 38.0862C2.98501 34.841 1.9747 30.9222 1.9747 26.3299C1.9747 21.9519 3.10747 18.0178 5.37302 14.5276C7.97534 10.4863 11.3737 8.46573 15.568 8.46573C17.6192 8.46573 19.7011 9.24642 21.8135 10.8078C22.3952 11.2364 22.8698 11.4507 23.2372 11.4507C24.0332 11.4507 24.4771 10.471 24.5689 8.51165C24.7832 8.57288 24.9975 8.6035 25.2119 8.6035C25.4262 8.6035 25.6711 8.57288 25.9466 8.51165C25.8242 10.2567 25.7629 12.2467 25.7629 14.4817C25.7629 16.8697 25.8395 18.9668 25.9926 20.7732C25.7782 20.7425 25.6558 20.7272 25.6252 20.7272C25.319 20.7272 24.9975 20.7885 24.6608 20.9109C24.2015 17.6963 23.1606 15.0634 21.538 13.0121C19.946 10.9303 18.0172 9.88935 15.7517 9.88935C13.0575 9.88935 10.945 11.3742 9.41426 14.3439C7.9141 17.283 7.16402 21.3242 7.16402 26.4676C7.16402 31.2743 7.8988 35.1165 9.36834 37.9944C10.8685 40.8722 12.9197 42.3112 15.5221 42.3112C18.2162 42.3112 20.0378 40.9794 20.9869 38.3158C21.3849 37.2137 21.5839 35.9125 21.5839 34.4124C21.5839 32.851 21.5533 31.7182 21.4921 31.014C21.3696 29.422 20.8798 28.626 20.0225 28.626C19.9613 28.626 19.15 28.6566 17.5886 28.7179C17.6192 28.473 17.6345 28.2586 17.6345 28.0749C17.6345 27.8606 17.6192 27.6157 17.5886 27.3402C20.1909 27.432 22.2881 27.4779 23.8801 27.4779C25.7476 27.4779 27.6611 27.432 29.6205 27.3402C29.5593 27.6463 29.5286 27.8913 29.5286 28.0749C29.5286 28.2586 29.5593 28.4576 29.6205 28.672ZM58.5123 26.0084C58.5123 30.7232 57.502 34.7032 55.4814 37.9484C53.124 41.8366 49.741 43.7807 45.3323 43.7807C41.138 43.7807 37.8315 41.8366 35.4129 37.9484C33.3617 34.6114 32.3361 30.7079 32.3361 26.238C32.3361 21.7375 33.377 17.7881 35.4588 14.3898C37.8775 10.4404 41.1992 8.46573 45.4242 8.46573C49.6185 8.46573 52.925 10.4098 55.3436 14.298C57.4561 17.6657 58.5123 21.5692 58.5123 26.0084ZM53.3689 26.238C53.3689 22.1968 52.9556 18.8291 52.129 16.1349C50.8431 11.9406 48.6235 9.84342 45.4701 9.84342C43.4801 9.84342 41.8575 10.6547 40.6022 12.2774C38.551 14.9103 37.5254 19.4873 37.5254 26.0084C37.5254 30.0496 37.9387 33.402 38.7653 36.0656C40.0818 40.2905 42.3167 42.403 45.4701 42.403C48.5929 42.403 50.8125 40.3211 52.129 36.1574C52.9556 33.4939 53.3689 30.1874 53.3689 26.238ZM82.6292 34.045C82.6292 36.9228 81.7566 39.2649 80.0115 41.0712C78.2971 42.8775 76.0928 43.7807 73.3986 43.7807C71.9291 43.7807 70.5207 43.4133 69.1737 42.6785C68.5001 42.3112 67.7653 41.8213 66.9693 41.209C66.5407 40.8722 66.1427 40.7038 65.7753 40.7038C65.01 40.7038 64.566 41.6376 64.4436 43.5052C64.1986 43.4439 63.9843 43.4133 63.8006 43.4133C63.617 43.4133 63.372 43.4439 63.0659 43.5052C63.0965 42.3418 63.1118 41.3621 63.1118 40.5661C63.1118 36.7697 62.974 33.5704 62.6985 30.9681C62.9128 30.9987 63.0965 31.014 63.2496 31.014C63.4945 31.014 63.7547 30.9681 64.0303 30.8763C64.6426 33.9072 65.5917 36.3871 66.8775 38.3158C68.592 40.9181 70.7504 42.2193 73.3527 42.2193C75.159 42.2193 76.5673 41.7141 77.5776 40.7038C78.5879 39.6629 79.0931 38.3771 79.0931 36.8463C79.0931 33.999 77.746 31.6263 75.0518 29.7282C72.5414 28.228 70.0156 26.7279 67.4745 25.2277C64.7803 23.2377 63.4333 20.666 63.4333 17.5126C63.4333 15.094 64.168 13.0274 65.6376 11.313C67.2602 9.41481 69.4033 8.46573 72.0668 8.46573C73.0465 8.46573 74.1487 8.72596 75.3733 9.24642C75.5264 9.30765 76.1081 9.64442 77.1184 10.2567C77.9756 10.7772 78.4961 11.0374 78.6798 11.0374C79.2309 11.0374 79.6135 10.2261 79.8279 8.6035C80.1034 8.66473 80.3483 8.69534 80.5626 8.69534C80.7463 8.69534 80.9606 8.66473 81.2056 8.6035C81.1443 9.55258 81.1137 10.6394 81.1137 11.864C81.1137 14.9256 81.2209 17.6198 81.4352 19.9465C81.129 19.9159 80.9759 19.9006 80.9759 19.9006C80.7616 19.9006 80.4708 19.9618 80.1034 20.0843C79.7054 17.4514 78.9247 15.2317 77.7613 13.4254C76.2918 11.0987 74.3936 9.93527 72.0668 9.93527C70.4136 9.93527 69.0818 10.4251 68.0715 11.4048C67.0918 12.3539 66.602 13.5785 66.602 15.0787C66.602 17.5585 67.9797 19.6863 70.7351 21.462C73.3068 22.9928 75.8938 24.5082 78.4961 26.0084C81.2515 28.1209 82.6292 30.7997 82.6292 34.045ZM106.263 34.045C106.263 36.9228 105.391 39.2649 103.646 41.0712C101.931 42.8775 99.7271 43.7807 97.0329 43.7807C95.5634 43.7807 94.1551 43.4133 92.808 42.6785C92.1344 42.3112 91.3997 41.8213 90.6037 41.209C90.1751 40.8722 89.7771 40.7038 89.4097 40.7038C88.6443 40.7038 88.2004 41.6376 88.0779 43.5052C87.833 43.4439 87.6187 43.4133 87.435 43.4133C87.2513 43.4133 87.0064 43.4439 86.7002 43.5052C86.7308 42.3418 86.7461 41.3621 86.7461 40.5661C86.7461 36.7697 86.6083 33.5704 86.3328 30.9681C86.5471 30.9987 86.7308 31.014 86.8839 31.014C87.1288 31.014 87.389 30.9681 87.6646 30.8763C88.2769 33.9072 89.226 36.3871 90.5118 38.3158C92.2263 40.9181 94.3847 42.2193 96.987 42.2193C98.7933 42.2193 100.202 41.7141 101.212 40.7038C102.222 39.6629 102.727 38.3771 102.727 36.8463C102.727 33.999 101.38 31.6263 98.6862 29.7282C96.1757 28.228 93.6499 26.7279 91.1088 25.2277C88.4147 23.2377 87.0676 20.666 87.0676 17.5126C87.0676 15.094 87.8024 13.0274 89.2719 11.313C90.8945 9.41481 93.0376 8.46573 95.7011 8.46573C96.6808 8.46573 97.783 8.72596 99.0076 9.24642C99.1607 9.30765 99.7424 9.64442 100.753 10.2567C101.61 10.7772 102.13 11.0374 102.314 11.0374C102.865 11.0374 103.248 10.2261 103.462 8.6035C103.738 8.66473 103.983 8.69534 104.197 8.69534C104.381 8.69534 104.595 8.66473 104.84 8.6035C104.779 9.55258 104.748 10.6394 104.748 11.864C104.748 14.9256 104.855 17.6198 105.069 19.9465C104.763 19.9159 104.61 19.9006 104.61 19.9006C104.396 19.9006 104.105 19.9618 103.738 20.0843C103.34 17.4514 102.559 15.2317 101.396 13.4254C99.9261 11.0987 98.0279 9.93527 95.7011 9.93527C94.0479 9.93527 92.7161 10.4251 91.7058 11.4048C90.7261 12.3539 90.2363 13.5785 90.2363 15.0787C90.2363 17.5585 91.614 19.6863 94.3694 21.462C96.9411 22.9928 99.5281 24.5082 102.13 26.0084C104.886 28.1209 106.263 30.7997 106.263 34.045ZM120.989 43C119.029 42.9082 117.024 42.8622 114.973 42.8622C113.35 42.8622 111.238 42.9082 108.635 43C108.697 42.7857 108.727 42.5867 108.727 42.403C108.727 42.1887 108.697 41.9285 108.635 41.6223C109.646 41.6835 110.258 41.7141 110.472 41.7141C111.299 41.7141 111.85 41.4692 112.126 40.9794C112.401 40.4895 112.554 39.6476 112.585 38.4536C112.646 35.7594 112.677 31.5957 112.677 25.9625C112.677 20.4517 112.646 16.4104 112.585 13.8387C112.554 12.6141 112.386 11.7569 112.08 11.267C111.804 10.7772 111.238 10.5323 110.38 10.5323C110.136 10.5323 109.554 10.5629 108.635 10.6241C108.666 10.4098 108.681 10.1955 108.681 9.98119C108.681 9.76689 108.666 9.52196 108.635 9.24642C110.625 9.33827 112.753 9.38419 115.019 9.38419C117.315 9.38419 119.305 9.33827 120.989 9.24642C120.927 9.55258 120.897 9.7975 120.897 9.98119C120.897 10.1649 120.927 10.3792 120.989 10.6241C119.978 10.5629 119.381 10.5323 119.198 10.5323C118.31 10.5323 117.713 10.8997 117.407 11.6344C117.223 12.0324 117.131 12.7672 117.131 13.8387C117.07 18.4311 117.039 22.7479 117.039 26.7891C117.039 31.014 117.07 34.9022 117.131 38.4536C117.162 39.617 117.284 40.4283 117.499 40.8875C117.774 41.4386 118.264 41.7141 118.968 41.7141C119.091 41.7141 119.764 41.6835 120.989 41.6223C120.927 41.8978 120.897 42.1428 120.897 42.3571C120.897 42.5408 120.927 42.7551 120.989 43ZM146.055 18.3851C146.055 22.0284 144.693 24.6613 141.968 26.2839C140.498 27.1412 138.508 27.5698 135.998 27.5698C135.569 27.5698 134.911 27.5545 134.023 27.5239C133.166 27.4626 132.523 27.432 132.094 27.432C131.176 27.432 130.717 27.7688 130.717 28.4423C130.717 31.2896 130.747 34.6114 130.808 38.4077C130.808 39.3261 130.9 40.0456 131.084 40.5661C131.39 41.3315 132.11 41.7141 133.242 41.7141C133.457 41.7141 134.283 41.6835 135.722 41.6223C135.661 41.8978 135.63 42.1428 135.63 42.3571C135.63 42.5408 135.661 42.7551 135.722 43C134.314 42.9388 132.247 42.9082 129.523 42.9082C126.675 42.9082 124.287 42.9388 122.359 43C122.42 42.7551 122.45 42.5255 122.45 42.3112C122.45 42.1275 122.42 41.8978 122.359 41.6223C123.308 41.6835 123.889 41.7141 124.104 41.7141C125.053 41.7141 125.68 41.3621 125.986 40.6579C126.14 40.2599 126.231 39.5098 126.262 38.4077C126.354 34.1827 126.4 29.82 126.4 25.3196C126.4 20.7885 126.354 16.9615 126.262 13.8387C126.231 12.7672 126.109 12.0171 125.895 11.5885C125.588 10.8844 124.976 10.5323 124.058 10.5323C123.813 10.5323 123.246 10.5629 122.359 10.6241C122.42 10.3486 122.45 10.1037 122.45 9.88935C122.45 9.67504 122.42 9.46073 122.359 9.24642C123.951 9.33827 125.619 9.38419 127.364 9.38419C128.252 9.38419 129.568 9.36888 131.314 9.33827C133.089 9.27704 134.421 9.24642 135.309 9.24642C138.125 9.24642 140.422 9.82812 142.197 10.9915C144.769 12.6754 146.055 15.1399 146.055 18.3851ZM141.141 18.5229C141.141 16.0737 140.59 14.1449 139.488 12.7366C138.386 11.3283 136.794 10.6241 134.712 10.6241H133.288C132.155 10.6241 131.467 10.8078 131.222 11.1752C130.977 11.512 130.854 12.2467 130.854 13.3795L130.762 25.0899C130.762 25.641 131.191 25.9472 132.048 26.0084C133.181 26.0696 133.931 26.1002 134.299 26.1002C136.503 26.1002 138.187 25.4114 139.35 24.0337C140.544 22.656 141.141 20.8191 141.141 18.5229ZM15.984 71C15.088 70.952 14.016 70.928 12.768 70.928C11.568 70.928 10.56 70.952 9.744 71C9.776 70.856 9.792 70.736 9.792 70.64C9.792 70.544 9.776 70.424 9.744 70.28C10.128 70.312 10.368 70.328 10.464 70.328C10.976 70.328 11.232 70.048 11.232 69.488C11.232 69.04 11.088 68.336 10.8 67.376C10.576 66.688 10.352 65.992 10.128 65.288C10.048 65.048 9.824 64.92 9.456 64.904L7.632 64.856C7.632 64.856 6.872 64.872 5.352 64.904C4.952 64.92 4.712 65.064 4.632 65.336C4.024 67.608 3.72 69.016 3.72 69.56C3.72 70.056 3.976 70.304 4.488 70.304C4.568 70.304 4.848 70.296 5.328 70.28C5.296 70.392 5.28 70.504 5.28 70.616C5.28 70.728 5.296 70.856 5.328 71C4.768 70.968 3.976 70.952 2.952 70.952C1.912 70.952 1.048 70.968 0.36 71C0.376 70.856 0.384 70.728 0.384 70.616C0.384 70.52 0.376 70.408 0.36 70.28C0.472 70.312 0.736 70.328 1.152 70.328C1.584 70.328 2 69.888 2.4 69.008C2.512 68.752 2.72 68.136 3.024 67.16C4.08 63.928 5.536 59.256 7.392 53.144C7.504 53.192 7.728 53.216 8.064 53.216C8.384 53.216 8.6 53.192 8.712 53.144C10.056 57.624 11.64 62.512 13.464 67.808C14.04 69.488 14.632 70.328 15.24 70.328C15.288 70.328 15.536 70.312 15.984 70.28C15.952 70.44 15.936 70.576 15.936 70.688C15.936 70.784 15.952 70.888 15.984 71ZM9.672 63.848C9.672 63.8 9.656 63.736 9.624 63.656C8.808 61.032 8.16 59.032 7.68 57.656C7.6 57.24 7.512 56.792 7.416 56.312C7.4 56.264 7.368 56.24 7.32 56.24C7.24 56.24 7.184 56.288 7.152 56.384C7.12 56.576 7.024 56.96 6.864 57.536C6.32 59.28 5.736 61.312 5.112 63.632C5.032 63.92 5.16 64.072 5.496 64.088C6.92 64.136 7.624 64.16 7.608 64.16C7.48 64.16 8.032 64.136 9.264 64.088C9.552 64.072 9.688 63.992 9.672 63.848ZM32.2479 54.08C31.8799 54.048 31.6079 54.032 31.4319 54.032C30.5839 54.032 30.1359 54.792 30.0879 56.312C29.9919 59.24 29.9439 63.032 29.9439 67.688C29.9439 68.76 29.9519 69.944 29.9679 71.24C29.7759 71.192 29.6559 71.168 29.6079 71.168C29.5919 71.168 29.4479 71.192 29.1759 71.24C28.2959 69.656 25.2719 64.736 20.1039 56.48C20.0879 56.448 20.0399 56.32 19.9599 56.096C19.8799 55.92 19.8319 55.832 19.8159 55.832C19.7679 55.848 19.7439 55.88 19.7439 55.928C19.7439 56.008 19.7679 56.168 19.8159 56.408C19.7999 57.032 19.7919 57.8 19.7919 58.712C19.7919 60.456 19.8399 63.576 19.9359 68.072C19.9679 69.576 20.5119 70.328 21.5679 70.328C21.7119 70.328 21.9759 70.312 22.3599 70.28C22.3439 70.408 22.3359 70.528 22.3359 70.64C22.3359 70.736 22.3439 70.856 22.3599 71C21.5119 70.952 20.5999 70.928 19.6239 70.928C18.9359 70.928 17.9679 70.952 16.7199 71C16.7519 70.84 16.7679 70.704 16.7679 70.592C16.7679 70.496 16.7519 70.392 16.7199 70.28C17.0879 70.328 17.2959 70.352 17.3439 70.352C18.2719 70.352 18.7439 69.592 18.7599 68.072L18.9039 57.584C18.9039 57.248 18.8959 56.632 18.8799 55.736C18.8639 55.16 18.7919 54.752 18.6639 54.512C18.4719 54.192 18.1279 54.032 17.6319 54.032C17.5039 54.032 17.1919 54.048 16.6959 54.08C16.7279 53.92 16.7439 53.784 16.7439 53.672C16.7439 53.576 16.7279 53.472 16.6959 53.36C17.6399 53.408 18.4159 53.432 19.0239 53.432C19.6799 53.432 20.3279 53.408 20.9679 53.36C21.8479 55.008 24.3919 59.152 28.5999 65.792C28.7279 66 28.8559 66.288 28.9839 66.656C28.9999 66.72 29.0319 66.752 29.0799 66.752C29.1119 66.752 29.1279 66.728 29.1279 66.68C29.1279 66.584 29.1199 66.416 29.1039 66.176C29.0879 65.92 29.0799 65.736 29.0799 65.624C29.0799 61.512 29.0639 58.392 29.0319 56.264C29.0159 54.776 28.4799 54.032 27.4239 54.032C27.2959 54.032 27.0239 54.048 26.6079 54.08C26.6399 53.952 26.6559 53.84 26.6559 53.744C26.6559 53.632 26.6399 53.504 26.6079 53.36C27.4559 53.408 28.3999 53.432 29.4399 53.432C30.0639 53.432 30.9999 53.408 32.2479 53.36C32.2159 53.52 32.1999 53.656 32.1999 53.768C32.1999 53.864 32.2159 53.968 32.2479 54.08ZM47.3136 62.216C47.3136 65.496 46.2736 67.952 44.1936 69.584C42.9936 70.528 41.6096 71 40.0416 71C39.5936 71 38.9136 70.992 38.0016 70.976C37.1056 70.944 36.4336 70.928 35.9856 70.928C35.4096 70.928 34.4016 70.952 32.9616 71C32.9776 70.888 32.9856 70.776 32.9856 70.664C32.9856 70.552 32.9776 70.424 32.9616 70.28C33.5696 70.312 33.9216 70.328 34.0176 70.328C34.3856 70.328 34.6336 70.192 34.7616 69.92C34.9056 69.632 34.9856 69.048 35.0016 68.168C35.0336 65.464 35.0496 63.184 35.0496 61.328C35.0496 59.36 35.0336 57.504 35.0016 55.76C34.9856 55.136 34.9056 54.696 34.7616 54.44C34.6176 54.168 34.3376 54.032 33.9216 54.032C33.8256 54.032 33.5056 54.048 32.9616 54.08C32.9936 53.936 33.0096 53.808 33.0096 53.696C33.0096 53.584 32.9936 53.472 32.9616 53.36C33.9536 53.408 34.8896 53.432 35.7696 53.432C36.2176 53.432 36.8816 53.424 37.7616 53.408C38.6416 53.376 39.2976 53.36 39.7296 53.36C41.1056 53.36 42.2896 53.624 43.2816 54.152C45.9696 55.576 47.3136 58.264 47.3136 62.216ZM44.6496 62.24C44.6496 60.144 44.3376 58.384 43.7136 56.96C42.8816 55.04 41.5696 54.08 39.7776 54.08H38.7936C38.1696 54.08 37.7856 54.152 37.6416 54.296C37.4976 54.424 37.4176 54.832 37.4016 55.52C37.3536 57.776 37.3296 60.016 37.3296 62.24C37.3296 64.592 37.3536 66.584 37.4016 68.216C37.4176 68.904 37.5056 69.4 37.6656 69.704C37.8576 70.104 38.2096 70.304 38.7216 70.304H39.7776C43.0256 70.304 44.6496 67.616 44.6496 62.24ZM69.3628 63.512C69.1228 63.496 68.9068 63.488 68.7148 63.488C68.2348 63.488 67.9068 63.656 67.7308 63.992C67.5548 64.312 67.4668 64.968 67.4668 65.96V67.4C67.4668 69.208 67.5068 70.536 67.5868 71.384C67.4588 71.352 67.3468 71.336 67.2508 71.336C67.1388 71.336 67.0108 71.352 66.8668 71.384C66.4828 70.232 66.0188 69.656 65.4748 69.656C65.3308 69.656 65.1868 69.736 65.0428 69.896C64.8988 70.056 64.7548 70.208 64.6108 70.352C63.7948 71.056 62.8428 71.408 61.7548 71.408C59.4988 71.408 57.7468 70.416 56.4988 68.432C55.4428 66.736 54.9148 64.688 54.9148 62.288C54.9148 60 55.5068 57.944 56.6908 56.12C58.0508 54.008 59.8268 52.952 62.0188 52.952C63.0908 52.952 64.1788 53.36 65.2828 54.176C65.5868 54.4 65.8348 54.512 66.0268 54.512C66.4428 54.512 66.6748 54 66.7228 52.976C66.8348 53.008 66.9468 53.024 67.0588 53.024C67.1708 53.024 67.2988 53.008 67.4428 52.976C67.3788 53.888 67.3468 54.928 67.3468 56.096C67.3468 57.344 67.3868 58.44 67.4668 59.384C67.3548 59.368 67.2908 59.36 67.2748 59.36C67.1148 59.36 66.9468 59.392 66.7708 59.456C66.5308 57.776 65.9868 56.4 65.1388 55.328C64.3068 54.24 63.2988 53.696 62.1148 53.696C60.7068 53.696 59.6028 54.472 58.8028 56.024C58.0188 57.56 57.6268 59.672 57.6268 62.36C57.6268 64.872 58.0108 66.88 58.7788 68.384C59.5628 69.888 60.6348 70.64 61.9948 70.64C63.4028 70.64 64.3548 69.944 64.8508 68.552C65.0588 67.976 65.1628 67.296 65.1628 66.512C65.1628 65.696 65.1468 65.104 65.1148 64.736C65.0508 63.904 64.7948 63.488 64.3468 63.488C64.3148 63.488 63.8908 63.504 63.0748 63.536C63.0908 63.408 63.0988 63.296 63.0988 63.2C63.0988 63.088 63.0908 62.96 63.0748 62.816C64.4348 62.864 65.5308 62.888 66.3628 62.888C67.3388 62.888 68.3388 62.864 69.3628 62.816C69.3308 62.976 69.3148 63.104 69.3148 63.2C69.3148 63.296 69.3308 63.4 69.3628 63.512ZM76.566 71C75.542 70.952 74.494 70.928 73.422 70.928C72.574 70.928 71.47 70.952 70.11 71C70.142 70.888 70.158 70.784 70.158 70.688C70.158 70.576 70.142 70.44 70.11 70.28C70.638 70.312 70.958 70.328 71.07 70.328C71.502 70.328 71.79 70.2 71.934 69.944C72.078 69.688 72.158 69.248 72.174 68.624C72.206 67.216 72.222 65.04 72.222 62.096C72.222 59.216 72.206 57.104 72.174 55.76C72.158 55.12 72.07 54.672 71.91 54.416C71.766 54.16 71.47 54.032 71.022 54.032C70.894 54.032 70.59 54.048 70.11 54.08C70.126 53.968 70.134 53.856 70.134 53.744C70.134 53.632 70.126 53.504 70.11 53.36C71.15 53.408 72.262 53.432 73.446 53.432C74.646 53.432 75.686 53.408 76.566 53.36C76.534 53.52 76.518 53.648 76.518 53.744C76.518 53.84 76.534 53.952 76.566 54.08C76.038 54.048 75.726 54.032 75.63 54.032C75.166 54.032 74.854 54.224 74.694 54.608C74.598 54.816 74.55 55.2 74.55 55.76C74.518 58.16 74.502 60.416 74.502 62.528C74.502 64.736 74.518 66.768 74.55 68.624C74.566 69.232 74.63 69.656 74.742 69.896C74.886 70.184 75.142 70.328 75.51 70.328C75.574 70.328 75.926 70.312 76.566 70.28C76.534 70.424 76.518 70.552 76.518 70.664C76.518 70.76 76.534 70.872 76.566 71ZM92.4019 63.512C92.1619 63.496 91.9459 63.488 91.7539 63.488C91.2739 63.488 90.9459 63.656 90.7699 63.992C90.5939 64.312 90.5059 64.968 90.5059 65.96V67.4C90.5059 69.208 90.5459 70.536 90.6259 71.384C90.4979 71.352 90.3859 71.336 90.2899 71.336C90.1779 71.336 90.0499 71.352 89.9059 71.384C89.5219 70.232 89.0579 69.656 88.5139 69.656C88.3699 69.656 88.2259 69.736 88.0819 69.896C87.9379 70.056 87.7939 70.208 87.6499 70.352C86.8339 71.056 85.8819 71.408 84.7939 71.408C82.5379 71.408 80.7859 70.416 79.5379 68.432C78.4819 66.736 77.9539 64.688 77.9539 62.288C77.9539 60 78.5459 57.944 79.7299 56.12C81.0899 54.008 82.8659 52.952 85.0579 52.952C86.1299 52.952 87.2179 53.36 88.3219 54.176C88.6259 54.4 88.8739 54.512 89.0659 54.512C89.4819 54.512 89.7139 54 89.7619 52.976C89.8739 53.008 89.9859 53.024 90.0979 53.024C90.2099 53.024 90.3379 53.008 90.4819 52.976C90.4179 53.888 90.3859 54.928 90.3859 56.096C90.3859 57.344 90.4259 58.44 90.5059 59.384C90.3939 59.368 90.3299 59.36 90.3139 59.36C90.1539 59.36 89.9859 59.392 89.8099 59.456C89.5699 57.776 89.0259 56.4 88.1779 55.328C87.3459 54.24 86.3379 53.696 85.1539 53.696C83.7459 53.696 82.6419 54.472 81.8419 56.024C81.0579 57.56 80.6659 59.672 80.6659 62.36C80.6659 64.872 81.0499 66.88 81.8179 68.384C82.6019 69.888 83.6739 70.64 85.0339 70.64C86.4419 70.64 87.3939 69.944 87.8899 68.552C88.0979 67.976 88.2019 67.296 88.2019 66.512C88.2019 65.696 88.1859 65.104 88.1539 64.736C88.0899 63.904 87.8339 63.488 87.3859 63.488C87.3539 63.488 86.9299 63.504 86.1139 63.536C86.1299 63.408 86.1379 63.296 86.1379 63.2C86.1379 63.088 86.1299 62.96 86.1139 62.816C87.4739 62.864 88.5699 62.888 89.4019 62.888C90.3779 62.888 91.3779 62.864 92.4019 62.816C92.3699 62.976 92.3539 63.104 92.3539 63.2C92.3539 63.296 92.3699 63.4 92.4019 63.512ZM108.269 63.512C108.029 63.496 107.813 63.488 107.621 63.488C107.141 63.488 106.813 63.656 106.637 63.992C106.461 64.312 106.373 64.968 106.373 65.96V67.4C106.373 69.208 106.413 70.536 106.493 71.384C106.365 71.352 106.253 71.336 106.157 71.336C106.045 71.336 105.917 71.352 105.773 71.384C105.389 70.232 104.925 69.656 104.381 69.656C104.237 69.656 104.093 69.736 103.949 69.896C103.805 70.056 103.661 70.208 103.517 70.352C102.701 71.056 101.749 71.408 100.661 71.408C98.4051 71.408 96.6531 70.416 95.4051 68.432C94.3491 66.736 93.8211 64.688 93.8211 62.288C93.8211 60 94.4131 57.944 95.5971 56.12C96.9571 54.008 98.7331 52.952 100.925 52.952C101.997 52.952 103.085 53.36 104.189 54.176C104.493 54.4 104.741 54.512 104.933 54.512C105.349 54.512 105.581 54 105.629 52.976C105.741 53.008 105.853 53.024 105.965 53.024C106.077 53.024 106.205 53.008 106.349 52.976C106.285 53.888 106.253 54.928 106.253 56.096C106.253 57.344 106.293 58.44 106.373 59.384C106.261 59.368 106.197 59.36 106.181 59.36C106.021 59.36 105.853 59.392 105.677 59.456C105.437 57.776 104.893 56.4 104.045 55.328C103.213 54.24 102.205 53.696 101.021 53.696C99.6131 53.696 98.5091 54.472 97.7091 56.024C96.9251 57.56 96.5331 59.672 96.5331 62.36C96.5331 64.872 96.9171 66.88 97.6851 68.384C98.4691 69.888 99.5411 70.64 100.901 70.64C102.309 70.64 103.261 69.944 103.757 68.552C103.965 67.976 104.069 67.296 104.069 66.512C104.069 65.696 104.053 65.104 104.021 64.736C103.957 63.904 103.701 63.488 103.253 63.488C103.221 63.488 102.797 63.504 101.981 63.536C101.997 63.408 102.005 63.296 102.005 63.2C102.005 63.088 101.997 62.96 101.981 62.816C103.341 62.864 104.437 62.888 105.269 62.888C106.245 62.888 107.245 62.864 108.269 62.816C108.237 62.976 108.221 63.104 108.221 63.2C108.221 63.296 108.237 63.4 108.269 63.512ZM120.776 64.496C120.568 66.192 120.464 68.024 120.464 69.992C120.464 70.312 120.472 70.648 120.488 71C118.84 70.936 116.08 70.904 112.208 70.904C111.424 70.904 110.72 70.92 110.096 70.952C109.488 70.984 109.128 71 109.016 71C109.048 70.872 109.064 70.76 109.064 70.664C109.064 70.552 109.048 70.424 109.016 70.28C109.528 70.312 109.84 70.328 109.952 70.328C110.432 70.328 110.744 70.144 110.888 69.776C110.984 69.552 111.04 69.16 111.056 68.6C111.088 67.24 111.104 65.24 111.104 62.6C111.104 59.864 111.088 57.584 111.056 55.76C111.04 55.2 110.992 54.808 110.912 54.584C110.752 54.216 110.432 54.032 109.952 54.032C109.856 54.032 109.544 54.048 109.016 54.08C109.048 53.968 109.064 53.864 109.064 53.768C109.064 53.656 109.048 53.52 109.016 53.36C110.376 53.408 111.456 53.432 112.256 53.432C113.392 53.432 114.512 53.408 115.616 53.36C115.584 53.504 115.568 53.632 115.568 53.744C115.568 53.84 115.584 53.952 115.616 54.08C115.184 54.048 114.88 54.032 114.704 54.032C114.176 54.032 113.816 54.2 113.624 54.536C113.512 54.76 113.448 55.168 113.432 55.76C113.384 57.936 113.36 60.248 113.36 62.696C113.36 65.112 113.384 67.136 113.432 68.768C113.448 69.344 113.552 69.744 113.744 69.968C113.952 70.176 114.296 70.28 114.776 70.28H116C117.184 70.28 118.088 69.848 118.712 68.984C119.352 68.104 119.8 66.584 120.056 64.424C120.184 64.488 120.344 64.52 120.536 64.52C120.632 64.52 120.712 64.512 120.776 64.496ZM134.154 64.568C133.946 66.2 133.842 68.048 133.842 70.112C133.842 70.32 133.85 70.632 133.866 71.048C131.338 70.968 129.418 70.928 128.106 70.928C125.898 70.928 123.746 70.952 121.65 71C121.682 70.856 121.698 70.728 121.698 70.616C121.698 70.504 121.682 70.392 121.65 70.28C122.226 70.296 122.538 70.304 122.586 70.304C123.05 70.304 123.362 70.128 123.522 69.776C123.602 69.568 123.65 69.192 123.666 68.648C123.698 66.664 123.714 64.64 123.714 62.576C123.714 60.592 123.698 58.472 123.666 56.216C123.65 54.76 123.29 54.032 122.586 54.032C122.57 54.032 122.25 54.048 121.626 54.08C121.658 53.936 121.674 53.808 121.674 53.696C121.674 53.584 121.658 53.472 121.626 53.36C123.21 53.408 125.098 53.432 127.29 53.432C129.306 53.432 131.306 53.408 133.29 53.36C133.274 53.632 133.266 53.936 133.266 54.272C133.266 55.28 133.37 56.936 133.578 59.24C133.482 59.224 133.402 59.216 133.338 59.216C133.21 59.216 133.05 59.248 132.858 59.312C132.602 57.408 132.122 56.04 131.418 55.208C130.778 54.456 129.874 54.08 128.706 54.08H127.41C126.786 54.08 126.394 54.168 126.234 54.344C126.09 54.504 126.018 54.912 126.018 55.568L125.994 60.752C125.994 61.2 126.154 61.424 126.474 61.424H127.506C128.738 61.424 129.402 60.216 129.498 57.8C129.626 57.848 129.746 57.872 129.858 57.872C129.97 57.872 130.09 57.848 130.218 57.8C130.154 59.112 130.122 60.488 130.122 61.928C130.122 63.432 130.154 64.768 130.218 65.936C130.058 65.92 129.922 65.912 129.81 65.912C129.714 65.912 129.61 65.92 129.498 65.936C129.386 63.408 128.706 62.144 127.458 62.144H126.522C126.17 62.144 125.994 62.376 125.994 62.84L126.018 68.264C126.018 69.608 126.506 70.28 127.482 70.28H129.138C131.57 70.28 133.002 68.352 133.434 64.496C133.562 64.56 133.722 64.592 133.914 64.592C133.994 64.592 134.074 64.584 134.154 64.568ZM146.683 66.32C146.683 67.824 146.227 69.048 145.315 69.992C144.419 70.936 143.267 71.408 141.859 71.408C141.091 71.408 140.355 71.216 139.651 70.832C139.299 70.64 138.915 70.384 138.499 70.064C138.275 69.888 138.067 69.8 137.875 69.8C137.475 69.8 137.243 70.288 137.179 71.264C137.051 71.232 136.939 71.216 136.843 71.216C136.747 71.216 136.619 71.232 136.459 71.264C136.475 70.656 136.483 70.144 136.483 69.728C136.483 67.744 136.411 66.072 136.267 64.712C136.379 64.728 136.475 64.736 136.555 64.736C136.683 64.736 136.819 64.712 136.963 64.664C137.283 66.248 137.779 67.544 138.451 68.552C139.347 69.912 140.475 70.592 141.835 70.592C142.779 70.592 143.515 70.328 144.043 69.8C144.571 69.256 144.835 68.584 144.835 67.784C144.835 66.296 144.131 65.056 142.723 64.064C141.411 63.28 140.091 62.496 138.763 61.712C137.355 60.672 136.651 59.328 136.651 57.68C136.651 56.416 137.035 55.336 137.803 54.44C138.651 53.448 139.771 52.952 141.163 52.952C141.675 52.952 142.251 53.088 142.891 53.36C142.971 53.392 143.275 53.568 143.803 53.888C144.251 54.16 144.523 54.296 144.619 54.296C144.907 54.296 145.107 53.872 145.219 53.024C145.363 53.056 145.491 53.072 145.603 53.072C145.699 53.072 145.811 53.056 145.939 53.024C145.907 53.52 145.891 54.088 145.891 54.728C145.891 56.328 145.947 57.736 146.059 58.952C145.899 58.936 145.819 58.928 145.819 58.928C145.707 58.928 145.555 58.96 145.363 59.024C145.155 57.648 144.747 56.488 144.139 55.544C143.371 54.328 142.379 53.72 141.163 53.72C140.299 53.72 139.603 53.976 139.075 54.488C138.563 54.984 138.307 55.624 138.307 56.408C138.307 57.704 139.027 58.816 140.467 59.744C141.811 60.544 143.163 61.336 144.523 62.12C145.963 63.224 146.683 64.624 146.683 66.32Z" fill="white"/>
</svg>
