<?xml version="1.0" encoding="UTF-8"?>
<svg id="Layer_2" data-name="Layer 2" xmlns="http://www.w3.org/2000/svg" viewBox="0 0 747.31 301.18"  >
  <g id="Layer_1-2" data-name="Layer 1">
    <g>
      <g>
        <path d="m136.47,154.4c-10.14,3.77-29.94,8.96-50.92,8.96-26.87,0-47.38-6.84-62.46-21.21C8.95,128.7.93,107.72.93,83.68,1.17,33.24,36.76,1.18,89.33,1.18c19.56,0,34.89,4.01,42.19,7.54l-6.36,23.34c-8.72-4.01-19.33-6.84-36.06-6.84-33.94,0-57.75,20.04-57.75,57.04s22.16,57.52,55.16,57.52c10.61,0,18.15-1.41,21.92-3.06v-39.84h-28.05v-22.86h56.1v80.38Z"/>
        <path d="m307.12,80.62c0,53.27-32.29,83.68-75.9,83.68s-73.31-34.41-73.31-80.85C157.92,34.41,188.79,0,233.58,0s73.54,35.12,73.54,80.62Zm-118.57,2.12c0,32.53,16.26,58.22,44.08,58.22s43.84-26.16,43.84-59.4c0-29.94-14.85-58.22-43.84-58.22s-44.08,26.64-44.08,59.4Z"/>
        <path d="m331.64,130.12c9.19,5.42,23.57,10.14,38.42,10.14,18.39,0,28.76-8.72,28.76-21.69,0-12.02-8.01-19.09-28.05-26.4-26.4-9.43-43.14-23.34-43.14-46.2,0-26.17,21.69-45.73,56.34-45.73,17.21,0,29.7,3.77,37.95,8.01l-6.84,23.34c-5.89-3.06-16.97-7.54-31.82-7.54-18.39,0-26.16,9.66-26.16,19.09,0,12.26,9.19,17.91,30.41,26.16,27.58,10.37,40.78,24.28,40.78,47.14,0,25.69-19.33,47.85-60.11,47.85-16.97,0-34.41-4.71-43.14-10.14l6.6-24.04Z"/>
        <path d="m453.97,130.12c9.19,5.42,23.57,10.14,38.42,10.14,18.39,0,28.76-8.72,28.76-21.69,0-12.02-8.01-19.09-28.05-26.4-26.4-9.43-43.14-23.34-43.14-46.2,0-26.17,21.69-45.73,56.34-45.73,17.21,0,29.7,3.77,37.95,8.01l-6.83,23.34c-5.89-3.06-16.97-7.54-31.82-7.54-18.39,0-26.17,9.66-26.17,19.09,0,12.26,9.19,17.91,30.41,26.16,27.58,10.37,40.78,24.28,40.78,47.14,0,25.69-19.33,47.85-60.11,47.85-16.97,0-34.42-4.71-43.14-10.14l6.6-24.04Z"/>
        <path d="m605.77,2.83v158.87h-28.99V2.83h28.99Z"/>
        <path d="m639.01,4.95c10.61-1.89,24.99-3.3,44.31-3.3,21.21,0,36.54,4.48,46.67,12.96,9.43,7.78,15.56,20.27,15.56,35.12s-4.71,27.34-13.44,35.83c-11.79,11.55-29.7,17.21-50.21,17.21-5.42,0-10.14-.24-14.14-1.18v60.11h-28.76V4.95Zm28.76,73.78c3.77,1.18,8.25,1.41,14.14,1.41,21.69,0,34.89-10.84,34.89-29.23s-12.26-26.87-32.29-26.87c-8.01,0-13.67.71-16.74,1.41v53.27Z"/>
      </g>
      <g>
        <path d="m20.93,272.01l-9.16,27.73H0l30.09-88.17h13.6l30.09,88.17h-12.17l-9.42-27.73h-31.26Zm29.04-8.9l-8.76-25.38c-1.96-5.76-3.27-10.99-4.58-16.09h-.26c-1.31,5.1-2.62,10.6-4.45,15.96l-8.63,25.51h26.69Z"/>
        <path d="m86.73,299.74v-88.17h12.56l28.12,44.61c6.41,10.33,11.64,19.62,15.7,28.65l.39-.13c-1.05-11.77-1.31-22.5-1.31-36.24v-36.89h10.73v88.17h-11.51l-27.99-44.74c-6.15-9.81-12.04-19.88-16.35-29.43l-.39.13c.65,11.12.78,21.71.78,36.37v37.67h-10.73Z"/>
        <path d="m172.8,212.88c6.93-1.18,15.17-1.96,24.2-1.96,16.35,0,27.99,3.92,35.71,10.99,7.98,7.19,12.56,17.4,12.56,31.66s-4.58,26.16-12.69,34.27c-8.37,8.24-21.98,12.69-39.11,12.69-8.24,0-14.91-.39-20.67-1.05v-86.6Zm11.38,77.96c2.88.39,7.06.52,11.51.52,24.46,0,37.54-13.6,37.54-37.41.13-20.8-11.64-34.01-35.71-34.01-5.89,0-10.33.52-13.34,1.18v69.72Z"/>
        <path d="m354.89,295.82c-5.1,1.96-15.31,4.84-27.21,4.84-13.34,0-24.33-3.4-32.96-11.64-7.59-7.33-12.3-19.1-12.3-32.83,0-26.29,18.18-45.52,47.75-45.52,10.2,0,18.31,2.22,22.11,4.06l-2.88,9.29c-4.71-2.22-10.6-3.79-19.49-3.79-21.45,0-35.45,13.34-35.45,35.45s13.34,35.58,34.01,35.58c7.46,0,12.56-1.05,15.17-2.35v-26.29h-17.79v-9.16h29.04v42.38Z"/>
        <path d="m383.53,211.57v88.17h-11.51v-88.17h11.51Z"/>
        <path d="m470.65,295.82c-5.1,1.96-15.3,4.84-27.21,4.84-13.34,0-24.33-3.4-32.96-11.64-7.59-7.33-12.3-19.1-12.3-32.83,0-26.29,18.18-45.52,47.75-45.52,10.2,0,18.31,2.22,22.11,4.06l-2.88,9.29c-4.71-2.22-10.6-3.79-19.49-3.79-21.45,0-35.45,13.34-35.45,35.45s13.34,35.58,34.01,35.58c7.46,0,12.56-1.05,15.17-2.35v-26.29h-17.79v-9.16h29.04v42.38Z"/>
        <path d="m555.15,295.82c-5.1,1.96-15.3,4.84-27.21,4.84-13.34,0-24.33-3.4-32.96-11.64-7.59-7.33-12.3-19.1-12.3-32.83,0-26.29,18.18-45.52,47.75-45.52,10.2,0,18.31,2.22,22.11,4.06l-2.88,9.29c-4.71-2.22-10.6-3.79-19.49-3.79-21.45,0-35.45,13.34-35.45,35.45s13.34,35.58,34.01,35.58c7.46,0,12.56-1.05,15.17-2.35v-26.29h-17.79v-9.16h29.04v42.38Z"/>
        <path d="m572.29,211.57h11.51v78.62h37.67v9.55h-49.19v-88.17Z"/>
        <path d="m679.68,258.41h-34.14v31.79h38.2v9.55h-49.71v-88.17h47.75v9.55h-36.24v27.86h34.14v9.42Z"/>
        <path d="m697.08,285.88c5.1,3.27,12.43,5.76,20.28,5.76,11.64,0,18.44-6.15,18.44-15.04,0-8.11-4.71-12.95-16.61-17.4-14.39-5.23-23.29-12.82-23.29-25.12,0-13.74,11.38-23.94,28.52-23.94,8.9,0,15.57,2.09,19.36,4.32l-3.14,9.29c-2.75-1.7-8.63-4.19-16.61-4.19-12.03,0-16.61,7.19-16.61,13.21,0,8.24,5.36,12.3,17.53,17.01,14.91,5.76,22.37,12.95,22.37,25.9,0,13.6-9.94,25.51-30.74,25.51-8.5,0-17.79-2.62-22.5-5.75l3.01-9.55Z"/>
      </g>
    </g>
  </g>
</svg>